<svg width="17" height="17" viewBox="0 0 17 17" fill="none"
    xmlns="http://www.w3.org/2000/svg">
    <path fill-rule="evenodd" clip-rule="evenodd" d="M8.41064 0.472717C3.99237 0.472717 0.410645 4.05444 0.410645 8.47272C0.410645 12.891 3.99237 16.4727 8.41064 16.4727C12.8289 16.4727 16.4106 12.891 16.4106 8.47272C16.4106 4.05444 12.8289 0.472717 8.41064 0.472717ZM9.27939 13.792V11.578C9.27939 11.35 9.16539 11.236 8.93739 11.236H7.33539C7.09539 11.236 6.97539 11.356 6.97539 11.596V13.774C6.97539 14.038 7.09539 14.17 7.33539 14.17H8.93739C9.16539 14.17 9.27939 14.044 9.27939 13.792ZM9.26139 9.68804V9.22004C9.26139 8.93204 9.41739 8.64404 9.72939 8.35604L10.9534 7.36604C11.4934 6.89804 11.7634 6.37004 11.7634 5.78204V5.53004C11.7634 4.59404 11.5054 3.87404 10.9894 3.37004C10.4734 2.86604 9.74139 2.61404 8.79339 2.61404H7.73139C6.78339 2.61404 6.05139 2.86604 5.53539 3.37004C5.01939 3.87404 4.76139 4.59404 4.76139 5.53004V5.94404C4.76139 6.20804 4.88739 6.34004 5.13939 6.34004H6.66939C6.92139 6.34004 7.04739 6.20804 7.04739 5.94404V5.56604C7.04739 5.18204 7.12539 4.91204 7.28139 4.75604C7.44939 4.60004 7.71939 4.52204 8.09139 4.52204H8.41539C8.81139 4.52204 9.09339 4.60604 9.26139 4.77404C9.44139 4.93004 9.53139 5.19404 9.53139 5.56604V5.67404C9.53139 6.03404 9.33939 6.36404 8.95539 6.66404L7.94739 7.49204C7.63539 7.74404 7.41339 7.99604 7.28139 8.24804C7.14939 8.48804 7.08339 8.80604 7.08339 9.20204V9.68804C7.08339 9.94004 7.20939 10.066 7.46139 10.066H8.88339C9.13539 10.066 9.26139 9.94004 9.26139 9.68804Z" fill="white"/>
</svg>
