<svg width="17" height="17" viewBox="0 0 17 17" fill="none"
    xmlns="http://www.w3.org/2000/svg">
    <g clip-path="url(#clip0_339_2663)">
        <path d="M7.41064 0.678955H9.41064V8.67896H7.41064V0.678955ZM11.4106 1.27271L11.4575 1.28833C12.1867 1.59041 12.8534 1.98885 13.4575 2.48364C14.0617 2.97843 14.5825 3.54614 15.02 4.18677C15.4575 4.82739 15.7987 5.52791 16.0435 6.28833C16.2882 7.04875 16.4106 7.84562 16.4106 8.67896C16.4106 9.78312 16.2023 10.8222 15.7856 11.7961C15.369 12.7701 14.7987 13.6191 14.0747 14.343C13.3507 15.067 12.5018 15.6373 11.5278 16.054C10.5539 16.4706 9.51481 16.679 8.41064 16.679C7.30648 16.679 6.26742 16.4706 5.29346 16.054C4.3195 15.6373 3.47054 15.067 2.74658 14.343C2.02262 13.6191 1.45231 12.7701 1.03564 11.7961C0.618978 10.8222 0.410645 9.78312 0.410645 8.67896C0.410645 7.84562 0.53304 7.04875 0.777832 6.28833C1.02262 5.52791 1.36377 4.82739 1.80127 4.18677C2.23877 3.54614 2.76481 2.97583 3.37939 2.47583C3.99398 1.97583 4.67106 1.57479 5.41064 1.27271L5.37939 3.50708C4.94189 3.7675 4.53825 4.08 4.16846 4.44458C3.79867 4.80916 3.48356 5.21281 3.22314 5.65552C2.96273 6.09823 2.76221 6.57479 2.62158 7.08521C2.48096 7.59562 2.41064 8.12687 2.41064 8.67896C2.41064 9.51229 2.56689 10.2935 2.87939 11.0227C3.19189 11.7519 3.62158 12.3873 4.16846 12.929C4.71533 13.4706 5.35075 13.8977 6.07471 14.2102C6.79867 14.5227 7.57731 14.679 8.41064 14.679C9.24398 14.679 10.0226 14.5227 10.7466 14.2102C11.4705 13.8977 12.106 13.4706 12.6528 12.929C13.1997 12.3873 13.6294 11.7519 13.9419 11.0227C14.2544 10.2935 14.4106 9.51229 14.4106 8.67896C14.4106 8.12687 14.3403 7.59562 14.1997 7.08521C14.0591 6.57479 13.856 6.09823 13.5903 5.65552C13.3247 5.21281 13.007 4.80656 12.6372 4.43677C12.2674 4.06698 11.8586 3.75187 11.4106 3.49146V1.27271Z" fill="white"/>
    </g>
    <defs>
        <clipPath id="clip0_339_2663">
            <rect width="16" height="16" fill="white" transform="translate(0.410645 0.678955)"/>
        </clipPath>
    </defs>
</svg>
